<?xml version="1.0" standalone="no"?><!DOCTYPE svg PUBLIC "-//W3C//DTD SVG 1.1//EN" "http://www.w3.org/Graphics/SVG/1.1/DTD/svg11.dtd"><svg class="icon" width="16px" height="16.00px" viewBox="0 0 1024 1024" version="1.1" xmlns="http://www.w3.org/2000/svg"><path fill="#ffffff" d="M184.192 212.309333c0-15.530667 12.586667-28.117333 28.117333-28.117333H512A28.074667 28.074667 0 1 0 512 128H212.309333A84.309333 84.309333 0 0 0 128 212.309333v599.381334C128 858.24 165.76 896 212.309333 896h599.381334A84.309333 84.309333 0 0 0 896 811.690667V512a28.074667 28.074667 0 1 0-56.192 0v299.690667a28.074667 28.074667 0 0 1-28.117333 28.117333H212.309333a28.117333 28.117333 0 0 1-28.117333-28.117333V212.309333z m237.568 350.378667v39.722667h39.722667l341.162666-341.162667-39.722666-39.722667-341.162667 341.162667z m321.28-400.768a28.117333 28.117333 0 0 1 39.722667 0l79.488 79.488a28.117333 28.117333 0 0 1 0 39.68l-369.237334 369.28a28.117333 28.117333 0 0 1-19.882666 8.234667H393.642667a28.117333 28.117333 0 0 1-28.074667-28.074667v-79.488c0-7.424 2.986667-14.592 8.234667-19.84l369.237333-369.28z" /></svg>