<?xml version="1.0" standalone="no"?><!DOCTYPE svg PUBLIC "-//W3C//DTD SVG 1.1//EN" "http://www.w3.org/Graphics/SVG/1.1/DTD/svg11.dtd"><svg t="1628666327695" class="icon" viewBox="0 0 1024 1024" version="1.1" xmlns="http://www.w3.org/2000/svg" p-id="1768" xmlns:xlink="http://www.w3.org/1999/xlink" width="200" height="200"><defs><style type="text/css"></style></defs><path d="M805.888 212.48L56.32 209.92c-20.992 0-38.4-17.408-38.4-38.4S35.328 133.12 56.32 133.12l749.568 2.56c20.992 0 38.4 17.408 38.4 38.4 0 21.504-16.896 38.4-38.4 38.4zM386.56 532.48H56.32c-20.992 0-38.4-17.408-38.4-38.4S35.328 455.68 56.32 455.68h330.24c20.992 0 38.4 17.408 38.4 38.4s-17.408 38.4-38.4 38.4zM386.56 849.92l-330.24-1.024c-20.992 0-38.4-17.408-38.4-38.4s17.408-38.4 38.4-38.4l330.24 1.024c20.992 0 38.4 17.408 38.4 38.4 0 21.504-17.408 38.4-38.4 38.4zM1003.52 633.856c-48.64-120.32-164.352-198.144-294.4-198.144S463.872 513.536 414.72 633.856c-3.584 9.216-3.584 19.456 0 28.672 48.64 120.32 164.352 198.144 294.4 198.144s245.248-77.824 294.4-198.144c3.584-8.704 3.584-18.944 0-28.672z m-300.032 127.488c-60.416 0-109.568-50.176-109.568-112.64s49.152-112.64 109.568-112.64 109.568 50.176 109.568 112.64c0.512 61.952-48.64 112.64-109.568 112.64z" p-id="1769" fill="#ffffff"></path></svg>