<?xml version="1.0" standalone="no"?><!DOCTYPE svg PUBLIC "-//W3C//DTD SVG 1.1//EN" "http://www.w3.org/Graphics/SVG/1.1/DTD/svg11.dtd"><svg t="1625625277980" class="icon" viewBox="0 0 1024 1024" version="1.1" xmlns="http://www.w3.org/2000/svg" p-id="1345" xmlns:xlink="http://www.w3.org/1999/xlink" width="200" height="200"><defs><style type="text/css"></style></defs><path d="M213.57056 399.95392c-48.8448 0-88.58112 39.72096-88.58112 88.54528l0 334.75584c0 48.8192 39.73632 88.54528 88.58112 88.54528l56.08448 0 0-511.8464L213.57056 399.95392z" p-id="1346" fill="#6CBD45"></path><path d="M821.43232 381.09184l-189.33248 0c10.34752-28.83072 17.17248-60.16512 19.61472-90.48064 3.77856-47.14496-3.47136-89.02144-20.96128-121.09312-21.5296-39.45984-58.17344-64.07168-105.99424-71.17824-21.6576-3.22048-40.28928 0.95232-55.3728 12.37504-30.49472 23.10656-36.09088 67.06688-42.5728 117.96992-5.18144 40.69376-11.05408 86.81472-30.79168 119.87456-9.86112 16.52736-26.72128 37.11488-64.06144 46.41792l0 516.82304 415.96416 0c24.33024 0 48.22016-8.32512 67.2768-23.42912 19.06688-15.10912 32.60416-36.46976 38.144-60.14976l73.51808-314.27072c7.57248-32.34816 0.06656-65.83296-20.58752-91.86816C885.61152 396.032 854.69184 381.09184 821.43232 381.09184z" p-id="1347" fill="#6CBD45"></path></svg>