<svg t="1629102608134" class="icon" viewBox="0 0 1480 1024" version="1.1" xmlns="http://www.w3.org/2000/svg" p-id="1925" width="16" height="16"><path d="M739.324749 4.877051c-408.046569 0-739.324749 490.775798-739.324749 509.200211 0 17.340624 331.097548 508.116423 739.324749 508.116423 409.130358 0 735.170224-512.812842 740.408537-508.116423C1484.9716 517.509261 1148.455107 4.877051 739.324749 4.877051z m0 863.23796c-351.328277 0-548.397248-354.037749-548.397249-354.037749S433.33498 159.136356 739.324749 159.136356c306.892926 0 553.093667 357.650379 549.119774 354.940906-3.973893-3.793262-242.226848 354.037749-549.119774 354.037749z m-3.431999-622.817428c-133.486682 0-241.32369 116.146058-241.32369 260.651262 0 143.602046 108.01764 260.651261 241.32369 260.651261 134.209208 0 242.226848-117.049215 242.226848-260.651261 0-144.505204-107.837008-260.651261-242.226848-260.651262z m0 0" p-id="1926" fill="#b9b9b9"></path></svg>